<?xml version="1.0" encoding="utf-8"?>
<!-- Generator: Adobe Illustrator 25.2.0, SVG Export Plug-In . SVG Version: 6.00 Build 0)  -->
<svg version="1.1" id="Layer_1" xmlns="http://www.w3.org/2000/svg" xmlns:xlink="http://www.w3.org/1999/xlink" x="0px" y="0px"
	 viewBox="0 0 119.77 51.36" style="enable-background:new 0 0 119.77 51.36;" xml:space="preserve">
<style type="text/css">
	.st0{fill:#010101;}
</style>
<path class="st0" d="M31.17,9.5c1.27,1.01,2.93,1.95,4.61,1.54c0.81-0.2,1.32-1.01,1.12-1.83S35.89,7.9,35.08,8.1
	c-0.04,0.01-0.08,0.02-0.12,0.03c-0.35,0.12-0.73,0.13-1.09,0.12c-0.66-0.02-1.32-0.13-1.96-0.28c-0.47-0.1-0.93,0.19-1.04,0.66
	C30.79,8.96,30.91,9.3,31.17,9.5z M35.76,11.05c0.68-0.15,1.36-0.36,2-0.64c0.81-0.36,1.17-1.31,0.81-2.12
	c-0.36-0.81-1.31-1.17-2.12-0.81c-0.03,0.01-0.06,0.03-0.09,0.05c-0.46,0.24-0.94,0.44-1.43,0.61c-0.79,0.28-1.2,1.14-0.93,1.93
	C34.25,10.8,35.01,11.22,35.76,11.05z M37.75,10.41c0.46-0.21,0.95-0.42,1.35-0.75c0.7-0.57,0.8-1.6,0.23-2.3
	c-0.57-0.7-1.6-0.8-2.3-0.23C37.02,7.14,37.01,7.15,37,7.16c0.03-0.02,0.01-0.01-0.01,0c-0.04,0.03-0.08,0.05-0.12,0.08
	c-0.17,0.1-0.34,0.2-0.52,0.29c-0.78,0.41-1.08,1.38-0.67,2.16C36.08,10.44,36.98,10.75,37.75,10.41z M39.1,9.66
	c0.1-0.08,0.19-0.16,0.29-0.24c0.7-0.57,0.81-1.6,0.24-2.31c-0.57-0.7-1.6-0.81-2.31-0.24c-0.01,0.01-0.03,0.02-0.04,0.03
	C37.19,6.99,37.09,7.08,37,7.16c-0.68,0.59-0.76,1.62-0.16,2.3C37.41,10.13,38.42,10.22,39.1,9.66z M39.86,8.8
	c0.02-0.04,0.03-0.08,0.05-0.12c0.31-0.85-0.12-1.79-0.97-2.11c-0.85-0.31-1.79,0.12-2.11,0.97c-0.02,0.04-0.03,0.08-0.04,0.13
	c-0.27,0.86,0.22,1.78,1.08,2.05C38.67,9.96,39.53,9.57,39.86,8.8z M38.48,9.76c0.07-0.01,0.14-0.03,0.21-0.04
	c0.89-0.18,1.47-1.04,1.29-1.93C39.8,6.9,38.94,6.32,38.05,6.5c-0.07,0.01-0.14,0.03-0.21,0.04c-0.89,0.18-1.47,1.04-1.29,1.93
	C36.73,9.36,37.59,9.94,38.48,9.76z M37.73,9.98c0.19-0.06,0.38-0.12,0.57-0.18c0.05-0.02,0.11-0.03,0.16-0.05
	c0.02,0,0.05-0.01,0.01,0c0.89-0.18,1.47-1.04,1.29-1.93c-0.18-0.89-1.04-1.47-1.93-1.29c-0.42,0.08-0.83,0.28-1.22,0.45
	c-0.81,0.35-1.18,1.29-0.83,2.1C36.11,9.85,36.95,10.23,37.73,9.98z M35.68,10.88c0.66-0.33,1.34-0.68,2.05-0.9
	c0.84-0.27,1.31-1.16,1.05-2.01c-0.27-0.84-1.16-1.31-2.01-1.05c-0.05,0.02-0.11,0.04-0.16,0.06c-0.79,0.34-1.55,0.73-2.32,1.12
	c-0.76,0.39-1.07,1.32-0.68,2.08C34,10.95,34.92,11.26,35.68,10.88z M32.28,12.77c1.11-0.67,2.24-1.31,3.41-1.89
	c0.77-0.38,1.08-1.31,0.7-2.08c-0.38-0.77-1.31-1.08-2.08-0.7c0,0-0.01,0-0.01,0.01c-1.24,0.63-2.43,1.33-3.61,2.06
	c-0.72,0.44-0.94,1.38-0.49,2.1C30.63,12.98,31.56,13.2,32.28,12.77z M28.09,15.24c1.4-0.81,2.8-1.63,4.19-2.47
	c0.72-0.43,0.96-1.37,0.52-2.09c-0.43-0.72-1.37-0.96-2.09-0.52c-0.01,0-0.01,0.01-0.02,0.01c-1.36,0.85-2.74,1.68-4.11,2.51
	c-0.7,0.42-0.93,1.34-0.51,2.04C26.48,15.42,27.38,15.65,28.09,15.24z M23.94,17.51c1.4-0.71,2.78-1.47,4.15-2.26
	c0.71-0.41,0.95-1.32,0.54-2.03c-0.41-0.71-1.32-0.95-2.03-0.54c-0.01,0-0.01,0.01-0.02,0.01c-1.3,0.78-2.62,1.53-3.97,2.23
	c-0.71,0.37-0.99,1.25-0.62,1.97C22.36,17.59,23.23,17.87,23.94,17.51z M20.39,19.22c1.2-0.54,2.38-1.12,3.55-1.72
	c0.72-0.36,1-1.24,0.64-1.96c-0.36-0.72-1.24-1.01-1.96-0.64c0,0-0.01,0-0.01,0.01c-1.14,0.59-2.29,1.18-3.44,1.75
	c-0.7,0.35-0.99,1.2-0.64,1.9C18.88,19.25,19.7,19.54,20.39,19.22z M17.51,20.58c0.95-0.47,1.91-0.92,2.88-1.36
	c0.71-0.32,1.03-1.17,0.7-1.88c-0.32-0.71-1.17-1.03-1.88-0.7c-0.02,0.01-0.03,0.01-0.05,0.02c-0.99,0.49-1.96,1.01-2.92,1.56
	c-0.64,0.37-0.86,1.19-0.49,1.83C16.11,20.66,16.88,20.89,17.51,20.58z M15.29,21.75c0.73-0.41,1.47-0.79,2.22-1.16
	c0.66-0.33,0.94-1.13,0.61-1.8c-0.33-0.66-1.13-0.94-1.8-0.61c-0.03,0.01-0.05,0.03-0.08,0.04c-0.76,0.44-1.52,0.89-2.27,1.36
	c-0.59,0.37-0.77,1.16-0.39,1.75C13.95,21.89,14.7,22.08,15.29,21.75z M13.38,22.53c0.68-0.12,1.31-0.45,1.9-0.78
	c0.61-0.34,0.82-1.12,0.48-1.73c-0.34-0.61-1.12-0.82-1.73-0.48c-0.02,0.01-0.04,0.02-0.05,0.03c-0.38,0.24-0.78,0.51-1.21,0.66
	c-0.62,0.23-0.93,0.91-0.71,1.53C12.26,22.3,12.82,22.62,13.38,22.53z M12.04,22.47c0.42,0.18,0.91,0.13,1.35,0.05
	c0.65-0.11,1.08-0.73,0.97-1.37c-0.11-0.65-0.73-1.08-1.37-0.97c-0.07,0.01-0.14,0.03-0.21,0.06c-0.13,0.05-0.25,0.09-0.38,0.13
	c-0.03,0.01-0.12,0.03-0.12,0.03c-0.59,0.1-0.99,0.66-0.89,1.25C11.44,22.02,11.69,22.33,12.04,22.47L12.04,22.47z M12.04,22.47
	L12.04,22.47c0.55,0.23,1.19-0.03,1.42-0.59c0.21-0.51,0-1.11-0.49-1.37l0,0c-0.32-0.39-0.9-0.45-1.3-0.13
	c-0.13,0.11-0.23,0.25-0.29,0.42c-0.07,0.21-0.11,0.43-0.09,0.65C11.33,21.91,11.62,22.3,12.04,22.47z M13.13,20.82
	c-0.02-0.08,0-0.18,0.02-0.25c0.12-0.43-0.14-0.88-0.57-1c-0.43-0.12-0.88,0.14-1,0.57c-0.06,0.22-0.12,0.44-0.2,0.66
	c-0.16,0.48,0.1,1,0.58,1.17c0.48,0.16,1-0.1,1.17-0.58C13.19,21.21,13.19,21.01,13.13,20.82z M13.15,20.57
	c0.11-0.4,0.25-0.78,0.42-1.16c0.17-0.39-0.01-0.83-0.39-1c-0.35-0.15-0.75-0.02-0.95,0.3c-0.27,0.45-0.5,0.93-0.64,1.44
	c-0.12,0.43,0.14,0.88,0.57,1S13.03,21,13.15,20.57z"/>
<path class="st0" d="M14.98,34.09c0.24-0.3,0.42-0.65,0.62-0.98c0.44-0.73,0.88-1.46,1.32-2.2c0.25-0.42,0.11-0.96-0.31-1.21
	c-0.33-0.2-0.74-0.16-1.03,0.09c-0.65,0.56-1.29,1.12-1.93,1.68c-0.29,0.25-0.6,0.49-0.85,0.78h0c-0.52,0.59-0.47,1.49,0.13,2.02
	c0.59,0.52,1.49,0.47,2.02-0.13C14.95,34.13,14.97,34.11,14.98,34.09z M12.54,33.96L12.54,33.96c0.12,0.21,0.28,0.39,0.49,0.52l0,0
	c0.21,0.13,0.44,0.21,0.69,0.23c0.54,0.03,0.97-0.23,1.28-0.63c0.48-0.62,0.37-1.52-0.25-2.01c-0.55-0.43-1.32-0.4-1.83,0.07l0,0
	c-0.15,0.12-0.27,0.26-0.36,0.43C12.31,32.99,12.3,33.52,12.54,33.96z M15.06,33.96c0.11-0.2,0.22-0.39,0.33-0.59
	c0.38-0.69,0.13-1.57-0.56-1.95c-0.69-0.38-1.57-0.13-1.95,0.56c-0.11,0.2-0.22,0.39-0.33,0.59c-0.38,0.69-0.13,1.57,0.56,1.95
	C13.8,34.9,14.67,34.65,15.06,33.96z M15.38,33.37c0.32-0.58,0.7-1.14,1.07-1.7c0.44-0.66,0.25-1.55-0.41-1.99
	c-0.66-0.44-1.55-0.25-1.98,0.41c-0.41,0.62-0.82,1.24-1.18,1.89v0c-0.38,0.69-0.13,1.57,0.56,1.95S15,34.06,15.38,33.37z
	 M16.45,31.67c0.74-1.12,1.52-2.22,2.31-3.31c0.45-0.62,0.31-1.5-0.32-1.95c-0.61-0.44-1.46-0.32-1.92,0.28
	c-0.85,1.11-1.7,2.23-2.47,3.39c-0.44,0.66-0.25,1.55,0.41,1.99C15.12,32.52,16.01,32.34,16.45,31.67
	C16.45,31.67,16.45,31.67,16.45,31.67z M18.76,28.36c1.21-1.68,2.39-3.39,3.55-5.11c0.42-0.62,0.26-1.46-0.36-1.88
	c-0.62-0.42-1.46-0.26-1.88,0.36c-1.14,1.68-2.31,3.35-3.55,4.96c-0.47,0.61-0.35,1.49,0.26,1.95c0.61,0.47,1.49,0.35,1.95-0.26
	C18.74,28.39,18.75,28.38,18.76,28.36z M22.31,23.25c1.32-1.96,2.66-3.91,4-5.85c0.42-0.61,0.27-1.45-0.34-1.88
	c-0.61-0.42-1.45-0.27-1.88,0.34c-1.36,1.95-2.7,3.9-4.03,5.87c-0.42,0.62-0.26,1.46,0.36,1.88C21.05,24.04,21.89,23.87,22.31,23.25
	z M26.32,17.41c1.53-2.21,2.96-4.5,4.33-6.82C31,10,30.8,9.24,30.22,8.89c-0.57-0.34-1.3-0.17-1.66,0.38
	c-1.46,2.21-2.94,4.41-4.45,6.59c-0.43,0.61-0.28,1.45,0.34,1.88C25.05,18.17,25.89,18.02,26.32,17.41
	C26.32,17.41,26.32,17.41,26.32,17.41z M30.65,10.59c0.63-1.06,1.25-2.12,1.83-3.2c0.34-0.63,0.69-1.28,0.92-1.96h0
	c0.19-0.56-0.11-1.18-0.67-1.37c-0.53-0.18-1.11,0.08-1.33,0.59c-0.25,0.56-0.58,1.08-0.9,1.6c-0.62,1.02-1.28,2.03-1.94,3.03
	c-0.38,0.57-0.22,1.34,0.35,1.71c0.57,0.38,1.34,0.22,1.71-0.35C30.63,10.62,30.64,10.61,30.65,10.59z M33.4,5.43
	c0.24-0.7,0.43-1.42,0.49-2.15c0.04-0.54-0.36-1.01-0.9-1.06c-0.5-0.04-0.94,0.3-1.04,0.78c-0.12,0.57-0.33,1.12-0.56,1.65
	c-0.24,0.55,0.01,1.18,0.55,1.42c0.55,0.24,1.18-0.01,1.42-0.55C33.38,5.49,33.39,5.46,33.4,5.43z M33.89,3.28
	c0.04-0.52,0.06-1.04,0.01-1.55c-0.05-0.48-0.48-0.84-0.97-0.79c-0.42,0.04-0.76,0.38-0.79,0.81c-0.03,0.42-0.1,0.84-0.19,1.25
	c-0.11,0.53,0.24,1.05,0.77,1.16c0.53,0.11,1.05-0.24,1.16-0.77C33.88,3.35,33.89,3.31,33.89,3.28z M33.9,1.72
	c-0.04-0.37-0.09-0.76-0.26-1.1c-0.18-0.39-0.65-0.56-1.04-0.38c-0.3,0.14-0.48,0.45-0.45,0.78c0.02,0.24,0,0.49-0.02,0.72
	c-0.04,0.49,0.33,0.91,0.81,0.95c0.49,0.04,0.91-0.33,0.95-0.81C33.9,1.83,33.9,1.78,33.9,1.72z M32.21,1.23L32.21,1.23
	c0.15,0.4,0.6,0.6,1.01,0.45c0.4-0.15,0.6-0.6,0.45-1.01c-0.01-0.02-0.01-0.04-0.02-0.05c-0.22-0.47-0.73-0.76-1.24-0.55
	c-0.35,0.15-0.52,0.55-0.37,0.9C32.07,1.07,32.13,1.16,32.21,1.23L32.21,1.23z M32.42,1.54c0.11-0.07,0.22-0.13,0.34-0.14
	c0.38-0.05,0.64-0.41,0.59-0.78c-0.05-0.38-0.41-0.64-0.78-0.59c-0.06,0.01-0.11,0.02-0.17,0.05c-0.26,0.11-0.49,0.31-0.7,0.5
	c-0.25,0.23-0.26,0.61-0.03,0.86C31.86,1.64,32.18,1.68,32.42,1.54L32.42,1.54z M31.34,2.65c0.31-0.41,0.66-0.85,1.1-1.13
	c0.28-0.18,0.37-0.55,0.19-0.84c-0.18-0.28-0.55-0.37-0.84-0.19c-0.03,0.02-0.05,0.03-0.07,0.05c-0.48,0.41-0.88,0.92-1.27,1.42
	c-0.19,0.24-0.14,0.59,0.1,0.78C30.8,2.95,31.15,2.9,31.34,2.65z"/>
<path class="st0" d="M20.88,46.02L20.88,46.02c0.12,0.91,0.96,1.55,1.87,1.43c0.89-0.12,1.53-0.93,1.44-1.82
	c0.02,0.22,0.01,0.12,0.02-0.02c0.02-0.22,0.05-0.45,0.08-0.67c0.12-0.88,0.26-1.76,0.39-2.64c0.09-0.56-0.29-1.08-0.85-1.17
	c-0.42-0.07-0.84,0.13-1.05,0.5c-0.46,0.8-0.92,1.6-1.33,2.42C21.15,44.65,20.78,45.32,20.88,46.02z M20.88,46.03
	c0.01,0.07,0.02,0.15,0.03,0.22c0.13,0.91,0.97,1.54,1.88,1.41c0.88-0.12,1.51-0.92,1.42-1.81c-0.01-0.08-0.01-0.15-0.02-0.23
	c-0.09-0.92-0.9-1.59-1.82-1.5c-0.92,0.09-1.59,0.9-1.5,1.82C20.87,45.98,20.88,46.01,20.88,46.03z M24.22,46.07
	c0-0.04,0-0.07,0-0.11c-0.01-0.92-0.76-1.65-1.68-1.64c-0.85,0.01-1.55,0.66-1.63,1.5c0,0.04-0.01,0.07-0.01,0.11
	c-0.05,0.92,0.66,1.7,1.57,1.75c0.92,0.05,1.7-0.66,1.75-1.57C24.22,46.1,24.22,46.08,24.22,46.07z M24.22,45.96
	c0-0.36-0.01-0.72-0.01-1.08c-0.01-0.9-0.76-1.63-1.66-1.62c-0.88,0.01-1.59,0.71-1.62,1.59c-0.01,0.36-0.02,0.72-0.03,1.08
	c-0.03,0.92,0.7,1.68,1.61,1.71c0.92,0.03,1.68-0.7,1.71-1.61C24.22,46,24.22,45.98,24.22,45.96z M24.2,44.88
	c-0.01-0.66,0.01-1.31,0.05-1.97c0.05-0.88-0.62-1.64-1.51-1.69c-0.87-0.05-1.62,0.6-1.69,1.46c-0.06,0.72-0.1,1.45-0.12,2.17
	c-0.03,0.9,0.69,1.66,1.59,1.68c0.9,0.03,1.66-0.69,1.68-1.59C24.2,44.92,24.2,44.9,24.2,44.88z M24.25,42.91
	c0.04-0.77,0.13-1.53,0.22-2.29c0.11-0.86-0.5-1.65-1.36-1.76c-0.85-0.11-1.63,0.48-1.75,1.32c-0.13,0.83-0.23,1.66-0.31,2.5
	c-0.08,0.88,0.58,1.66,1.46,1.73c0.88,0.08,1.66-0.58,1.73-1.46C24.25,42.94,24.25,42.92,24.25,42.91z M24.47,40.62
	c0.13-1.02,0.29-2.03,0.45-3.04c0.14-0.84-0.43-1.63-1.27-1.77c-0.83-0.14-1.61,0.42-1.76,1.25c-0.19,1.04-0.37,2.08-0.53,3.13
	c-0.13,0.86,0.46,1.66,1.32,1.79c0.86,0.13,1.66-0.46,1.79-1.32C24.47,40.64,24.47,40.63,24.47,40.62z M24.92,37.57
	c0.21-1.29,0.44-2.57,0.67-3.85c0.15-0.8-0.38-1.57-1.19-1.72c-0.78-0.14-1.53,0.35-1.71,1.13c-0.3,1.3-0.57,2.61-0.81,3.92
	c-0.15,0.84,0.4,1.64,1.24,1.79c0.84,0.15,1.64-0.4,1.79-1.24C24.92,37.59,24.92,37.58,24.92,37.57z M25.59,33.72
	c0.23-1.26,0.5-2.5,0.85-3.73c0.21-0.74-0.22-1.5-0.96-1.71c-0.71-0.2-1.45,0.19-1.68,0.89c-0.44,1.3-0.8,2.62-1.1,3.96
	c-0.18,0.8,0.32,1.59,1.11,1.77s1.59-0.32,1.77-1.11C25.59,33.76,25.59,33.74,25.59,33.72z M26.44,29.99
	c0.29-1.04,0.59-2.08,0.9-3.12c0.2-0.68-0.19-1.39-0.87-1.6c-0.65-0.19-1.33,0.15-1.57,0.78c-0.39,1.03-0.75,2.07-1.11,3.12
	c-0.25,0.72,0.14,1.51,0.86,1.76c0.72,0.25,1.51-0.14,1.76-0.86C26.43,30.04,26.43,30.01,26.44,29.99z M27.34,26.86
	c0.26-0.88,0.49-1.77,0.67-2.68c0.12-0.64-0.29-1.26-0.93-1.38c-0.6-0.12-1.18,0.24-1.35,0.82c-0.24,0.82-0.52,1.62-0.82,2.42
	c-0.25,0.66,0.09,1.4,0.75,1.65c0.66,0.25,1.4-0.09,1.65-0.75C27.32,26.92,27.33,26.89,27.34,26.86z M28.01,24.19
	c0.14-0.73,0.25-1.48,0.27-2.23c0.01-0.59-0.45-1.08-1.04-1.09c-0.54-0.01-1,0.37-1.08,0.91c-0.09,0.63-0.25,1.25-0.43,1.85
	c-0.18,0.62,0.17,1.28,0.79,1.46c0.62,0.18,1.28-0.17,1.46-0.79C27.99,24.26,28,24.23,28.01,24.19z M28.27,21.96
	c0.01-0.57-0.01-1.15-0.13-1.72c-0.11-0.51-0.61-0.83-1.12-0.72c-0.43,0.09-0.74,0.47-0.74,0.92c0,0.45-0.06,0.89-0.12,1.34
	c-0.09,0.58,0.31,1.12,0.89,1.21c0.58,0.09,1.12-0.31,1.21-0.89C28.27,22.05,28.27,22.01,28.27,21.96z M26.23,20.03
	c0.06,0.12,0.05,0.28,0.05,0.41c0,0.52,0.42,0.94,0.94,0.95c0.52,0,0.94-0.42,0.95-0.94c0-0.07-0.01-0.14-0.02-0.21
	c-0.11-0.52-0.36-1.08-0.88-1.32c-0.4-0.18-0.88-0.01-1.06,0.39C26.1,19.55,26.11,19.81,26.23,20.03z M26.34,20.21
	c0,0,0.01,0,0.02,0l0,0c0.31,0.32,0.81,0.33,1.13,0.02c0.32-0.31,0.33-0.81,0.02-1.13c-0.07-0.07-0.15-0.13-0.24-0.17
	c-0.39-0.18-0.83-0.14-1.21,0.03c-0.33,0.14-0.49,0.52-0.35,0.85C25.81,20.06,26.07,20.22,26.34,20.21z M24.66,21.09
	c0.36-0.24,0.74-0.47,1.13-0.67c0.18-0.09,0.38-0.2,0.58-0.22c0.36-0.04,0.62-0.36,0.58-0.72s-0.36-0.62-0.72-0.58
	c-0.05,0.01-0.1,0.02-0.15,0.03c-0.3,0.11-0.58,0.26-0.86,0.42c-0.41,0.24-0.81,0.49-1.21,0.75c-0.27,0.18-0.34,0.54-0.17,0.8
	C24.04,21.19,24.4,21.27,24.66,21.09z"/>
<path class="st0" d="M36.78,29.66c0.32-0.14,0.64-0.3,0.91-0.52c0.36-0.29,0.66-0.71,0.62-1.19c-0.02-0.23-0.12-0.44-0.28-0.6
	c-0.35-0.36-0.89-0.39-1.35-0.29c-0.33,0.07-0.64,0.2-0.94,0.35c-0.61,0.31-0.86,1.05-0.55,1.67
	C35.48,29.66,36.18,29.91,36.78,29.66z M34.87,30.48c0.63-0.28,1.27-0.55,1.91-0.82c0.63-0.27,0.93-0.99,0.66-1.62
	c-0.27-0.63-0.99-0.93-1.62-0.66c-0.03,0.01-0.05,0.02-0.07,0.03c-0.65,0.32-1.28,0.67-1.9,1.04c-0.54,0.32-0.73,1.02-0.41,1.56
	C33.72,30.51,34.34,30.71,34.87,30.48z M32.83,31.43c0.67-0.33,1.35-0.65,2.04-0.95c0.58-0.25,0.84-0.93,0.59-1.51
	c-0.25-0.58-0.93-0.84-1.5-0.59c-0.04,0.02-0.08,0.04-0.12,0.06c-0.68,0.4-1.35,0.83-2,1.28c-0.45,0.31-0.56,0.92-0.25,1.37
	C31.86,31.5,32.39,31.64,32.83,31.43z M30.63,32.55c0.73-0.39,1.46-0.76,2.21-1.12c0.49-0.24,0.69-0.83,0.45-1.32
	c-0.24-0.49-0.83-0.69-1.32-0.45c-0.04,0.02-0.09,0.05-0.13,0.07c-0.72,0.49-1.4,1.04-2.05,1.62c-0.3,0.27-0.33,0.74-0.06,1.04
	C29.96,32.65,30.33,32.71,30.63,32.55z M28.82,33.81c0.54-0.5,1.16-0.91,1.81-1.26c0.36-0.19,0.5-0.64,0.31-1
	c-0.19-0.36-0.64-0.5-1-0.31c-0.05,0.03-0.1,0.06-0.15,0.1c-0.59,0.53-1.18,1.07-1.76,1.61c-0.24,0.22-0.25,0.59-0.03,0.82
	C28.21,34.02,28.58,34.03,28.82,33.81z M27.85,34.83c0.26-0.38,0.63-0.7,0.97-1.02c0.24-0.22,0.25-0.59,0.03-0.82
	c-0.22-0.24-0.59-0.25-0.82-0.03c-0.4,0.37-0.82,0.76-1.14,1.21c-0.18,0.27-0.11,0.63,0.15,0.81C27.3,35.16,27.67,35.09,27.85,34.83
	z"/>
<path class="st0" d="M37.41,39.29c0.59-0.13,1.16-0.37,1.7-0.65c0.65-0.33,1.26-0.72,1.86-1.14c0.4-0.27,0.49-0.82,0.22-1.21
	c-0.19-0.28-0.53-0.42-0.86-0.36c-1.16,0.2-2.31,0.4-3.47,0.61c-0.76,0.14-1.26,0.87-1.12,1.63c0.14,0.76,0.87,1.26,1.63,1.12
	C37.38,39.3,37.39,39.29,37.41,39.29z M35.7,39.4c0.56,0.12,1.16,0.01,1.72-0.11c0.75-0.17,1.23-0.92,1.06-1.67
	c-0.16-0.73-0.87-1.2-1.61-1.07c-0.13,0.02-0.26,0.04-0.39,0.06c-0.13,0.01-0.22,0-0.36-0.01c-0.78-0.07-1.47,0.51-1.54,1.3
	C34.52,38.6,35,39.25,35.7,39.4z M34.35,38.6c0.36,0.39,0.83,0.69,1.35,0.81c0.77,0.16,1.53-0.33,1.69-1.1
	c0.15-0.68-0.22-1.36-0.87-1.62c-0.21-0.08-0.08-0.03-0.04,0c0,0-0.02-0.02-0.03-0.03c-0.53-0.58-1.44-0.62-2.02-0.08
	C33.85,37.11,33.81,38.01,34.35,38.6L34.35,38.6z M34.35,38.6L34.35,38.6c0.53,0.58,1.44,0.62,2.02,0.08
	c0.53-0.49,0.62-1.29,0.2-1.88c-0.12-0.16-0.02-0.01-0.01,0.02c-0.02-0.06-0.02-0.13-0.02-0.19c0-0.78-0.64-1.41-1.43-1.41
	c-0.76,0-1.38,0.61-1.41,1.37C33.68,37.32,33.85,38.06,34.35,38.6z M36.54,36.63c0-0.51,0.07-1.02,0.16-1.52
	c0.12-0.74-0.38-1.44-1.12-1.56c-0.7-0.12-1.37,0.33-1.54,1.01c-0.16,0.66-0.3,1.35-0.33,2.03c-0.03,0.78,0.59,1.44,1.37,1.46
	c0.78,0.03,1.44-0.59,1.46-1.37C36.54,36.67,36.54,36.65,36.54,36.63z M36.7,35.11c0.13-0.79,0.3-1.57,0.49-2.35
	c0.17-0.68-0.25-1.37-0.93-1.54c-0.65-0.16-1.32,0.22-1.52,0.86c-0.26,0.82-0.5,1.65-0.7,2.48c-0.18,0.73,0.26,1.47,0.99,1.65
	c0.73,0.18,1.47-0.26,1.65-0.99C36.68,35.19,36.69,35.15,36.7,35.11z M37.19,32.77c0.23-0.95,0.44-1.91,0.63-2.87
	c0.13-0.64-0.29-1.26-0.93-1.38c-0.61-0.12-1.2,0.25-1.37,0.85c-0.25,0.91-0.51,1.82-0.79,2.72c-0.21,0.67,0.17,1.39,0.84,1.59
	s1.39-0.17,1.59-0.84C37.18,32.82,37.18,32.79,37.19,32.77L37.19,32.77z M37.82,29.9c0.19-0.98,0.31-1.97,0.33-2.97
	c0.01-0.59-0.45-1.07-1.04-1.08c-0.54-0.01-1.01,0.39-1.07,0.93c-0.11,0.87-0.29,1.73-0.52,2.58c-0.17,0.63,0.2,1.28,0.83,1.45
	c0.63,0.17,1.28-0.2,1.45-0.83C37.81,29.95,37.82,29.93,37.82,29.9z M38.16,26.93c0.02-0.85-0.01-1.7-0.13-2.54
	c-0.07-0.51-0.53-0.86-1.04-0.79c-0.46,0.06-0.81,0.46-0.8,0.93c0.01,0.75-0.05,1.51-0.14,2.25h0c-0.07,0.58,0.34,1.11,0.92,1.18
	c0.58,0.07,1.11-0.34,1.18-0.92C38.15,27.01,38.16,26.97,38.16,26.93z M36.01,23.04c0.15,0.48,0.17,0.99,0.17,1.49
	c0.01,0.51,0.42,0.92,0.93,0.92c0.51-0.01,0.92-0.42,0.92-0.93c0-0.04,0-0.08-0.01-0.12c-0.09-0.69-0.26-1.39-0.63-1.98
	c-0.23-0.36-0.7-0.47-1.06-0.24C36.05,22.36,35.91,22.71,36.01,23.04z M36.12,23.26L36.12,23.26c0.24,0.35,0.72,0.43,1.07,0.19
	c0.33-0.23,0.43-0.69,0.21-1.04c-0.17-0.28-0.4-0.55-0.73-0.63c-0.45-0.12-0.83,0.16-1,0.56c-0.15,0.34,0.01,0.74,0.35,0.89
	C36.05,23.24,36.08,23.25,36.12,23.26L36.12,23.26z"/>
<path class="st0" d="M72.62,16.62c0.56-0.32,1.16-0.65,1.62-1.12c0.4-0.42,0.59-1.02,0.34-1.57c-0.26-0.57-0.87-0.82-1.46-0.76
	c-0.65,0.06-1.12,0.64-1.05,1.29c0.01,0.1,0.03,0.2,0.07,0.29c-0.17,0.23-0.34,0.45-0.52,0.67c-0.28,0.34-0.24,0.85,0.1,1.13
	C71.96,16.76,72.33,16.79,72.62,16.62z M70.89,15.32c0.74,0.06,1.49,0.12,2.23,0.19c0.65,0.06,1.22-0.42,1.27-1.07
	c0.06-0.65-0.42-1.22-1.07-1.27c-0.08-0.01-0.17-0.01-0.25,0.01c-0.74,0.1-1.48,0.19-2.22,0.28c-0.51,0.06-0.88,0.53-0.82,1.05
	C70.09,14.94,70.45,15.28,70.89,15.32z M69.15,15.46c0.16-0.1,0.37-0.12,0.55-0.14c0.39-0.04,0.79-0.03,1.19,0.01
	c0.52,0.04,0.97-0.34,1.01-0.86c0.04-0.52-0.34-0.97-0.86-1.01c-0.06-0.01-0.13,0-0.19,0c-0.49,0.06-0.99,0.14-1.47,0.28
	c-0.38,0.11-0.75,0.26-1.07,0.5c-0.33,0.25-0.39,0.71-0.15,1.04C68.4,15.58,68.82,15.66,69.15,15.46z"/>
<path class="st0" d="M68.63,36.38L68.63,36.38c0.01-0.07,0.01-0.14,0.01-0.21c-0.01-0.39-0.18-0.73-0.35-1.06
	c-0.21-0.41-0.68-0.61-1.12-0.48c-0.36,0.11-0.73,0.21-1.01,0.48c-0.05,0.05-0.1,0.1-0.15,0.16l-0.21,0.35
	c-0.32,0.75,0.03,1.63,0.78,1.95c0.75,0.32,1.63-0.03,1.95-0.78L68.63,36.38z M65.67,36.25c0,0.07,0.01,0.14,0.03,0.21
	c0.15,0.81,0.92,1.34,1.73,1.19c0.81-0.15,1.34-0.92,1.19-1.73c-0.01-0.07-0.03-0.14-0.05-0.2c-0.24-0.78-1.07-1.22-1.85-0.98
	C66.06,34.95,65.63,35.57,65.67,36.25z M68.63,36.13c-0.01-0.33-0.01-0.66-0.02-0.99c-0.02-0.8-0.68-1.43-1.47-1.41
	c-0.75,0.02-1.37,0.61-1.41,1.36c-0.02,0.33-0.04,0.66-0.06,0.99c-0.05,0.82,0.58,1.52,1.39,1.57c0.82,0.05,1.52-0.58,1.57-1.39
	C68.63,36.21,68.64,36.17,68.63,36.13z M68.61,35.14c-0.01-0.66,0.03-1.32,0.09-1.97c0.07-0.74-0.47-1.41-1.21-1.48
	c-0.7-0.07-1.34,0.41-1.47,1.1c-0.14,0.76-0.25,1.53-0.3,2.3c-0.05,0.8,0.56,1.48,1.36,1.52c0.8,0.05,1.48-0.56,1.52-1.35
	C68.61,35.22,68.61,35.18,68.61,35.14z M68.71,33.17c0.08-0.8,0.2-1.61,0.34-2.4c0.12-0.68-0.33-1.33-1.01-1.46
	c-0.64-0.12-1.27,0.28-1.43,0.91c-0.22,0.85-0.42,1.7-0.58,2.56c-0.14,0.74,0.35,1.44,1.09,1.58c0.74,0.14,1.44-0.35,1.58-1.09
	C68.7,33.24,68.7,33.21,68.71,33.17z M69.05,30.77c0.21-1.17,0.45-2.34,0.68-3.5c0.12-0.6-0.26-1.18-0.86-1.3
	c-0.56-0.11-1.11,0.22-1.27,0.77c-0.34,1.16-0.68,2.32-0.99,3.49c-0.18,0.67,0.22,1.35,0.89,1.53c0.67,0.18,1.35-0.22,1.53-0.89
	C69.04,30.83,69.04,30.8,69.05,30.77z M69.73,27.26c0.23-1.13,0.47-2.28,0.52-3.43c0.02-0.52-0.38-0.95-0.9-0.97
	c-0.47-0.02-0.89,0.32-0.96,0.78c-0.17,1.05-0.49,2.08-0.79,3.09c-0.17,0.58,0.16,1.19,0.74,1.37c0.58,0.17,1.19-0.16,1.37-0.74
	C69.72,27.33,69.72,27.3,69.73,27.26z M70.25,23.83c0.03-0.67,0.02-1.34-0.08-2.01c-0.06-0.44-0.47-0.75-0.91-0.69
	c-0.39,0.06-0.69,0.39-0.69,0.78c-0.01,0.58-0.08,1.15-0.18,1.72c-0.08,0.51,0.26,0.99,0.77,1.08c0.51,0.08,0.99-0.26,1.08-0.77
	C70.24,23.91,70.24,23.87,70.25,23.83z M68.47,21.01c0.11,0.28,0.1,0.62,0.09,0.91c-0.01,0.45,0.35,0.81,0.79,0.82
	s0.81-0.35,0.82-0.79c0-0.04,0-0.09-0.01-0.13c-0.07-0.5-0.18-1.03-0.47-1.46c-0.21-0.32-0.65-0.41-0.97-0.19
	C68.46,20.36,68.35,20.71,68.47,21.01z M68.29,20.78c0.09,0.05,0.14,0.14,0.18,0.23c0.14,0.36,0.55,0.53,0.91,0.39
	c0.36-0.14,0.53-0.55,0.39-0.91c-0.02-0.05-0.04-0.09-0.07-0.13c-0.2-0.3-0.47-0.56-0.79-0.74c-0.32-0.17-0.71-0.05-0.88,0.27
	C67.86,20.21,67.98,20.61,68.29,20.78z"/>
<path class="st0" d="M93.45,46.73c0.77,1.04,1.56,2.07,2.42,3.03c0.67,0.75,1.48,1.61,2.56,1.6c1.02-0.01,1.84-0.84,1.83-1.86
	c-0.01-0.86-0.61-1.61-1.46-1.79c-0.46-0.23-0.88-0.54-1.31-0.83c-0.82-0.57-1.61-1.17-2.41-1.77c-0.51-0.39-1.25-0.29-1.64,0.22
	C93.15,45.74,93.14,46.31,93.45,46.73z M98.44,51.36c0.74-0.01,1.47-0.27,1.96-0.85c0.66-0.77,0.56-1.93-0.21-2.59
	c-0.67-0.56-1.64-0.58-2.32-0.04c-0.07,0.05,0.11-0.07,0.15-0.09c0.06-0.03,0.12-0.06,0.18-0.08c0.1-0.03,0.41-0.09-0.02-0.03
	c-1.01,0.14-1.72,1.07-1.58,2.08C96.71,50.68,97.51,51.37,98.44,51.36z M100.4,50.51c0.35-0.41,0.54-0.92,0.67-1.44
	c0.25-0.97-0.33-1.97-1.3-2.22c-0.96-0.25-1.94,0.31-2.21,1.26c-0.02,0.09-0.05,0.13-0.1,0.2c-0.55,0.85-0.31,1.99,0.54,2.54
	C98.77,51.37,99.8,51.22,100.4,50.51z M101.07,49.08c0.18-0.7,0.24-1.44,0.3-2.16c0.09-0.99-0.65-1.87-1.64-1.95
	c-0.98-0.08-1.85,0.63-1.95,1.61c-0.04,0.35-0.08,0.69-0.13,1.04c-0.03,0.17-0.05,0.34-0.1,0.5c-0.28,0.97,0.28,1.98,1.25,2.25
	s1.98-0.29,2.25-1.25C101.06,49.1,101.07,49.09,101.07,49.08z M101.37,46.92c0.11-1.26,0.2-2.53,0.28-3.8
	c0.06-0.97-0.67-1.81-1.64-1.88c-0.96-0.06-1.79,0.65-1.88,1.6c-0.11,1.24-0.22,2.49-0.35,3.73c-0.1,0.99,0.62,1.88,1.61,1.98
	c0.99,0.1,1.88-0.62,1.98-1.61C101.37,46.94,101.37,46.93,101.37,46.92z M101.65,43.12c0.12-1.77,0.24-3.55,0.37-5.32
	c0.07-0.93-0.63-1.74-1.57-1.81c-0.91-0.07-1.71,0.61-1.81,1.52c-0.18,1.78-0.36,3.56-0.52,5.34c-0.09,0.97,0.63,1.83,1.6,1.92
	c0.97,0.09,1.83-0.63,1.92-1.6C101.65,43.15,101.65,43.14,101.65,43.12z M102.03,37.8c0.18-2.47,0.31-4.94,0.42-7.42
	c0.04-0.88-0.64-1.62-1.51-1.66c-0.86-0.04-1.59,0.61-1.66,1.47c-0.18,2.44-0.38,4.88-0.63,7.31c-0.1,0.93,0.58,1.76,1.51,1.86
	c0.93,0.1,1.76-0.58,1.86-1.51C102.02,37.84,102.03,37.82,102.03,37.8z M102.45,30.39c0.11-2.3,0.21-4.6,0.25-6.9
	c0.01-0.83-0.64-1.51-1.47-1.52c-0.81-0.01-1.49,0.62-1.52,1.43c-0.09,2.27-0.26,4.53-0.43,6.79c-0.07,0.87,0.59,1.64,1.47,1.7
	c0.87,0.07,1.64-0.59,1.7-1.47C102.45,30.42,102.45,30.4,102.45,30.39z M102.7,23.49c0.02-1.44,0.03-2.87,0.01-4.31
	c-0.01-0.8-0.67-1.44-1.47-1.42c-0.78,0.01-1.42,0.65-1.42,1.43c-0.01,1.41-0.06,2.81-0.12,4.22c-0.03,0.83,0.61,1.52,1.43,1.56
	c0.83,0.03,1.52-0.61,1.56-1.43C102.7,23.51,102.7,23.5,102.7,23.49z M99.82,15.69c0.01,1.16,0.01,2.33,0,3.49
	c-0.01,0.8,0.63,1.45,1.43,1.46c0.8,0.01,1.45-0.63,1.46-1.43c0-0.01,0-0.02,0-0.03c-0.02-1.19-0.05-2.37-0.1-3.56
	c-0.03-0.77-0.68-1.37-1.46-1.34C100.41,14.31,99.82,14.93,99.82,15.69z M99.71,12.71c0.07,0.99,0.11,1.98,0.12,2.98
	c0.01,0.77,0.64,1.39,1.41,1.38c0.77-0.01,1.39-0.64,1.38-1.41c0-0.01,0-0.03,0-0.04c-0.04-1.05-0.12-2.1-0.23-3.15h0
	c-0.08-0.74-0.75-1.27-1.49-1.19C100.18,11.35,99.65,11.99,99.71,12.71z M99.47,10.24c0.1,0.82,0.17,1.65,0.23,2.48
	c0.05,0.74,0.7,1.3,1.44,1.25c0.74-0.05,1.3-0.7,1.25-1.44c0-0.02,0-0.03,0-0.05c-0.1-0.87-0.21-1.73-0.35-2.6
	c-0.12-0.71-0.78-1.19-1.49-1.07C99.87,8.91,99.39,9.55,99.47,10.24z M99.04,7.48c0.16,0.92,0.32,1.83,0.43,2.76
	c0.09,0.71,0.73,1.22,1.44,1.13s1.22-0.73,1.13-1.44c0-0.02,0-0.04-0.01-0.05c-0.16-0.98-0.38-1.94-0.62-2.9
	c-0.16-0.65-0.82-1.05-1.47-0.89C99.33,6.24,98.93,6.85,99.04,7.48z M98.56,5.46c0.09,0.21,0.15,0.44,0.2,0.66
	c0.11,0.45,0.2,0.9,0.28,1.35c0.12,0.66,0.75,1.1,1.41,0.99c0.66-0.12,1.1-0.75,0.99-1.41c0-0.03-0.01-0.05-0.02-0.08
	c-0.12-0.5-0.25-0.99-0.41-1.48c-0.11-0.35-0.23-0.7-0.41-1.03c-0.29-0.56-0.98-0.77-1.54-0.47C98.54,4.27,98.32,4.91,98.56,5.46z
	 M98.14,4.77c0.18,0.2,0.31,0.44,0.42,0.69c0.26,0.57,0.93,0.83,1.51,0.57c0.57-0.26,0.83-0.93,0.57-1.51
	c-0.01-0.02-0.02-0.05-0.03-0.07c-0.23-0.43-0.5-0.84-0.84-1.18c-0.43-0.44-1.13-0.44-1.56-0.02C97.79,3.67,97.76,4.33,98.14,4.77z
	 M97.59,4.24c0.2,0.16,0.39,0.34,0.55,0.53c0.4,0.46,1.1,0.51,1.56,0.11c0.46-0.4,0.51-1.1,0.11-1.56
	c-0.01-0.02-0.03-0.03-0.04-0.05c-0.3-0.31-0.64-0.58-1.02-0.79c-0.51-0.28-1.15-0.1-1.43,0.41C97.07,3.36,97.18,3.92,97.59,4.24z
	 M97,3.9c0.21,0.09,0.41,0.2,0.59,0.34c0.46,0.36,1.12,0.28,1.48-0.18c0.36-0.46,0.28-1.12-0.18-1.48
	c-0.04-0.03-0.09-0.07-0.14-0.09c-0.35-0.19-0.72-0.34-1.1-0.45c-0.52-0.15-1.07,0.16-1.21,0.68C96.3,3.21,96.54,3.71,97,3.9z
	 M96.22,3.71C96.48,3.74,96.75,3.8,97,3.9c0.5,0.21,1.08-0.03,1.29-0.53c0.21-0.5-0.03-1.08-0.53-1.29
	c-0.04-0.02-0.07-0.03-0.11-0.04c-0.43-0.12-0.87-0.17-1.31-0.18c-0.51-0.01-0.93,0.4-0.94,0.91C95.39,3.25,95.74,3.66,96.22,3.71z
	 M95,3.66c0.41,0,0.81,0.01,1.22,0.05c0.51,0.06,0.97-0.31,1.02-0.81c0.06-0.51-0.31-0.97-0.81-1.02c-0.03,0-0.06-0.01-0.09-0.01
	c-0.48-0.01-0.97,0.03-1.44,0.08C94.42,2,94.08,2.43,94.14,2.9C94.19,3.33,94.56,3.66,95,3.66z M93.45,3.79
	c0.51-0.07,1.03-0.12,1.54-0.13c0.47,0,0.85-0.39,0.85-0.87c0-0.47-0.39-0.85-0.87-0.85c-0.03,0-0.06,0-0.09,0.01
	c-0.58,0.07-1.15,0.17-1.71,0.29c-0.43,0.09-0.7,0.51-0.61,0.93C92.66,3.58,93.04,3.85,93.45,3.79z M91.54,4.18
	c0.63-0.16,1.27-0.3,1.91-0.39c0.43-0.06,0.73-0.46,0.67-0.89c-0.06-0.43-0.46-0.73-0.89-0.67c-0.02,0-0.03,0.01-0.05,0.01
	c-0.69,0.15-1.37,0.35-2.04,0.57c-0.37,0.13-0.57,0.53-0.45,0.91C90.81,4.07,91.18,4.27,91.54,4.18z M89.45,4.74
	c0.69-0.2,1.39-0.38,2.09-0.56c0.38-0.1,0.61-0.49,0.52-0.87c-0.1-0.38-0.49-0.61-0.87-0.52c-0.02,0-0.04,0.01-0.05,0.02
	c-0.7,0.24-1.4,0.5-2.08,0.79c-0.31,0.13-0.46,0.49-0.33,0.8C88.84,4.68,89.16,4.83,89.45,4.74z M87.61,5.37
	c0.6-0.24,1.22-0.45,1.84-0.62c0.32-0.09,0.51-0.43,0.42-0.75c-0.09-0.32-0.43-0.51-0.75-0.42c-0.02,0.01-0.05,0.01-0.07,0.02
	c-0.64,0.26-1.26,0.56-1.86,0.89c-0.24,0.13-0.33,0.43-0.2,0.67C87.11,5.37,87.38,5.46,87.61,5.37z M85.06,7.09
	c0.77-0.69,1.61-1.32,2.56-1.73c0.25-0.11,0.37-0.4,0.26-0.65c-0.11-0.25-0.4-0.37-0.65-0.26c-0.01,0.01-0.02,0.01-0.03,0.02
	c-1,0.52-1.89,1.22-2.73,1.96c-0.18,0.16-0.19,0.44-0.03,0.62C84.6,7.24,84.88,7.25,85.06,7.09z"/>
<path class="st0" d="M87.8,31.71c2.41-2.06,4.81-4.14,7.2-6.22c0.32-0.27,0.35-0.75,0.07-1.07c-0.24-0.28-0.65-0.34-0.97-0.15
	c-2.74,1.67-5.47,3.42-7.98,5.43c-0.56,0.45-0.65,1.27-0.2,1.84c0.45,0.56,1.27,0.65,1.84,0.2C87.77,31.72,87.79,31.72,87.8,31.71z
	 M84.81,34.49c0.94-0.98,1.96-1.89,2.99-2.79c0.55-0.47,0.6-1.3,0.13-1.84c-0.46-0.53-1.25-0.6-1.8-0.17
	c-1.15,0.91-2.27,1.85-3.29,2.91c-0.52,0.54-0.51,1.41,0.04,1.93C83.43,35.05,84.29,35.03,84.81,34.49
	C84.81,34.49,84.81,34.49,84.81,34.49z M83.48,35.88c0.45-0.46,0.89-0.93,1.34-1.39c0.52-0.54,0.51-1.41-0.04-1.93
	c-0.54-0.52-1.41-0.51-1.93,0.04c-0.45,0.46-0.89,0.93-1.34,1.39c-0.52,0.54-0.51,1.41,0.04,1.93
	C82.09,36.44,82.95,36.42,83.48,35.88C83.48,35.88,83.48,35.88,83.48,35.88z M81.07,35.44L81.07,35.44
	c0.06,0.18,0.15,0.34,0.27,0.48l0,0c0.14,0.16,0.31,0.29,0.51,0.37c0.52,0.22,1.09,0.09,1.49-0.28c0.05-0.04,0.1-0.09,0.14-0.14
	c0.52-0.54,0.51-1.41-0.04-1.93c-0.48-0.47-1.24-0.51-1.77-0.11l0,0c-0.17,0.1-0.31,0.24-0.41,0.41
	C81.03,34.6,80.95,35.03,81.07,35.44z M83.54,35.74c0.19-0.29,0.38-0.57,0.56-0.86c0.41-0.63,0.24-1.48-0.39-1.89
	c-0.63-0.41-1.48-0.24-1.89,0.39c-0.19,0.29-0.38,0.57-0.56,0.86c-0.41,0.63-0.24,1.48,0.39,1.89
	C82.28,36.55,83.13,36.37,83.54,35.74z M84.11,34.88c0.61-0.94,1.17-1.91,1.72-2.88c0.37-0.63,0.15-1.45-0.49-1.81
	c-0.62-0.36-1.41-0.16-1.79,0.45c-0.57,0.92-1.14,1.84-1.73,2.75c-0.41,0.63-0.24,1.48,0.39,1.89
	C82.84,35.69,83.69,35.51,84.11,34.88z M85.83,32c0.36-0.63,0.71-1.27,1.01-1.93c0.23-0.51,0.44-1.03,0.55-1.58
	c0.15-0.68-0.28-1.34-0.96-1.49c-0.65-0.14-1.29,0.25-1.47,0.89c-0.1,0.37-0.27,0.72-0.44,1.06c-0.29,0.57-0.62,1.13-0.96,1.68
	c-0.39,0.62-0.2,1.44,0.43,1.83c0.62,0.39,1.44,0.2,1.83-0.43C85.81,32.03,85.82,32.01,85.83,32z M87.39,28.49
	c0.21-0.96,0.1-1.96-0.26-2.87c-0.23-0.59-0.9-0.88-1.49-0.65c-0.54,0.21-0.84,0.79-0.69,1.35c0.13,0.51,0.15,1.05,0,1.56
	c-0.19,0.67,0.2,1.36,0.87,1.54c0.67,0.19,1.36-0.2,1.54-0.87C87.38,28.54,87.38,28.52,87.39,28.49z M84.16,25.07
	c0.4,0.32,0.66,0.77,0.79,1.27c0.16,0.61,0.78,0.98,1.4,0.83c0.61-0.16,0.98-0.78,0.83-1.4c-0.01-0.05-0.03-0.09-0.04-0.14
	c-0.35-0.9-0.95-1.67-1.76-2.21c-0.47-0.31-1.11-0.19-1.42,0.28C83.66,24.14,83.75,24.73,84.16,25.07z M82.68,24.31
	c0.55,0.14,1.05,0.41,1.48,0.76c0.44,0.36,1.09,0.29,1.44-0.15c0.36-0.44,0.29-1.09-0.15-1.44c-0.02-0.02-0.05-0.04-0.07-0.05
	c-0.71-0.47-1.51-0.8-2.35-0.91c-0.5-0.07-0.96,0.29-1.03,0.79C81.93,23.76,82.23,24.19,82.68,24.31z M81.07,24.06
	c0.54,0.02,1.08,0.12,1.61,0.25c0.49,0.12,0.99-0.18,1.11-0.67c0.12-0.49-0.18-0.99-0.67-1.11c-0.03-0.01-0.07-0.01-0.1-0.02
	c-0.68-0.09-1.39-0.11-2.07,0.01c-0.42,0.08-0.7,0.48-0.63,0.9C80.4,23.78,80.7,24.05,81.07,24.06z M80.15,24.24
	c0.27-0.17,0.61-0.19,0.92-0.18c0.43,0.01,0.79-0.32,0.8-0.75c0.01-0.43-0.32-0.79-0.75-0.8c-0.05,0-0.11,0-0.16,0.01
	c-0.54,0.1-1.08,0.27-1.54,0.57c-0.32,0.21-0.4,0.63-0.2,0.95C79.42,24.35,79.84,24.44,80.15,24.24z M79.65,24.98
	c0.1-0.27,0.25-0.58,0.51-0.74c0.32-0.2,0.42-0.62,0.22-0.94c-0.2-0.32-0.62-0.42-0.94-0.22c-0.01,0-0.01,0.01-0.02,0.01
	c-0.5,0.33-0.84,0.85-1.06,1.4c-0.14,0.35,0.03,0.75,0.38,0.9c0.35,0.14,0.75-0.03,0.9-0.38C79.64,24.99,79.64,24.99,79.65,24.98z
	 M79.56,26.67c-0.07-0.55-0.11-1.16,0.08-1.69c0.13-0.36-0.05-0.75-0.41-0.88c-0.35-0.13-0.74,0.04-0.88,0.39
	c-0.28,0.71-0.39,1.48-0.44,2.23c-0.03,0.46,0.31,0.85,0.77,0.88c0.46,0.03,0.85-0.31,0.88-0.77
	C79.57,26.78,79.57,26.72,79.56,26.67z M78.01,29.84L78.01,29.84c0.06,0.58,0.58,1,1.15,0.94c0.58-0.06,1-0.58,0.94-1.15
	c0-0.04-0.01-0.08-0.02-0.12c-0.21-0.94-0.4-1.88-0.52-2.83c-0.06-0.45-0.47-0.77-0.93-0.71c-0.39,0.05-0.69,0.37-0.72,0.76
	C77.85,27.76,77.91,28.8,78.01,29.84z M78.01,29.84c0.08,0.84,0.17,1.67,0.26,2.5c0.07,0.67,0.68,1.16,1.36,1.09
	c0.67-0.07,1.16-0.68,1.09-1.36c-0.01-0.07-0.02-0.15-0.04-0.22c-0.23-0.77-0.41-1.57-0.58-2.35c-0.13-0.57-0.69-0.92-1.26-0.8
	C78.31,28.82,77.96,29.31,78.01,29.84z M78.27,32.34c0.06,0.57,0.17,1.14,0.36,1.69c0.23,0.68,0.97,1.05,1.65,0.82
	s1.05-0.97,0.82-1.65c-0.15-0.45-0.29-0.9-0.43-1.35c-0.2-0.65-0.88-1.02-1.53-0.82C78.57,31.2,78.21,31.75,78.27,32.34z
	 M78.63,34.03c0.08,0.23,0.15,0.45,0.23,0.68c0.23,0.68,0.97,1.05,1.65,0.82c0.68-0.23,1.05-0.97,0.82-1.65
	c-0.08-0.23-0.15-0.45-0.23-0.68c-0.23-0.68-0.97-1.05-1.65-0.82S78.4,33.35,78.63,34.03z M78.86,34.71c0.17,0.5,0.61,0.86,1.15,0.9
	c0.23,0.02,0.46-0.03,0.67-0.13v0c0.2-0.1,0.37-0.25,0.5-0.43c0.23-0.34,0.27-0.72,0.18-1.1c-0.16-0.7-0.85-1.13-1.55-0.97
	c-0.52,0.12-0.91,0.54-0.99,1.07h0C78.77,34.27,78.79,34.5,78.86,34.71z M78.69,33.02c0.04,0.45,0.08,0.89,0.12,1.34
	c0.06,0.71,0.69,1.24,1.41,1.17c0.71-0.06,1.24-0.69,1.17-1.41c-0.01-0.06-0.01-0.12-0.03-0.17c-0.1-0.44-0.2-0.87-0.3-1.31
	c-0.15-0.65-0.79-1.05-1.44-0.91C79.03,31.87,78.63,32.42,78.69,33.02z M78.42,30.87c0.12,0.71,0.2,1.43,0.27,2.14
	c0.06,0.66,0.65,1.15,1.31,1.09c0.66-0.06,1.15-0.65,1.09-1.31c0-0.05-0.01-0.11-0.03-0.16c-0.17-0.74-0.35-1.48-0.54-2.22h0
	c-0.15-0.57-0.74-0.91-1.31-0.76C78.67,29.8,78.33,30.33,78.42,30.87z M78.02,29.04c0.16,0.6,0.29,1.22,0.4,1.84
	c0.1,0.58,0.65,0.98,1.24,0.88c0.58-0.1,0.98-0.65,0.88-1.23c-0.01-0.03-0.01-0.07-0.02-0.1c-0.18-0.67-0.38-1.33-0.62-1.98
	c-0.19-0.51-0.75-0.77-1.26-0.58C78.16,28.04,77.89,28.55,78.02,29.04z M77.55,27.67c0.21,0.44,0.35,0.9,0.47,1.37
	c0.14,0.52,0.68,0.83,1.2,0.69c0.52-0.14,0.83-0.68,0.69-1.2c-0.01-0.03-0.02-0.06-0.03-0.08c-0.22-0.59-0.48-1.18-0.87-1.68
	c-0.29-0.38-0.84-0.45-1.22-0.16C77.48,26.86,77.38,27.3,77.55,27.67z M77.34,27.34c0.1,0.05,0.03,0.01,0.02,0
	c0.01,0.01,0.02,0.02,0.03,0.04c0.07,0.09,0.12,0.19,0.17,0.29c0.2,0.43,0.72,0.62,1.16,0.41s0.62-0.72,0.41-1.16
	c-0.03-0.06-0.06-0.11-0.1-0.16c-0.33-0.42-0.78-0.83-1.35-0.83c-0.41,0-0.74,0.33-0.74,0.74C76.93,26.96,77.09,27.22,77.34,27.34z
	 M76.58,27.08L76.58,27.08c0.03,0.38,0.36,0.66,0.73,0.63c0.21-0.02,0.41-0.13,0.52-0.31l0,0c0.4-0.09,0.65-0.48,0.56-0.88
	c-0.07-0.33-0.35-0.56-0.69-0.58c-0.32-0.02-0.64,0.07-0.87,0.3C76.63,26.47,76.55,26.78,76.58,27.08z"/>
</svg>
